PathFileType  4	(X/Y/Z) C:\Users\antoi\Documents\MyRepositories\mobilecap\ResultsAnalysis
DataRate	CameraRate	NumFrames	NumMarkers	Units	OrigDataRate	OrigDataStartFrame	OrigNumFrames
100.0	100.0	5	51	mm	100.0	31	240
Frame#	Time	r_knee			r_shank_antsup			r_ankle			r_calc			r_5meta			r_toe			L_knee			L_shank_antsup			L_ankle			L_calc			L_5meta			L_toe			r_sh2			r_sh3			r_sh4			L_sh2			L_sh3			r_thigh1			r_thigh2			r_thigh3			r_thigh4			r_thigh5			L_thigh1			L_thigh2			L_thigh3			L_thigh4			r.ASIS			r.PSIS			L.ASIS			L.PSIS			C7			R_Shoulder			L_Shoulder			R_Sternum			L_Sternum			R_humerus			R_elbow_med			R_elbow_lat			R_forearm			R_wrist_radius			R_wrist_ulna			L_humerus			L_elbow_med			L_elbow_lat			L_forearm			L_wrist_radius			L_wrist_ulna			R_HJC			L_HJC			R_HJC_reg			L_HJC_reg			
		X1	Y1	Z1	X2	Y2	Z2	X3	Y3	Z3	X4	Y4	Z4	X5	Y5	Z5	X6	Y6	Z6	X7	Y7	Z7	X8	Y8	Z8	X9	Y9	Z9	X10	Y10	Z10	X11	Y11	Z11	X12	Y12	Z12	X13	Y13	Z13	X14	Y14	Z14	X15	Y15	Z15	X16	Y16	Z16	X17	Y17	Z17	X18	Y18	Z18	X19	Y19	Z19	X20	Y20	Z20	X21	Y21	Z21	X22	Y22	Z22	X23	Y23	Z23	X24	Y24	Z24	X25	Y25	Z25	X26	Y26	Z26	X27	Y27	Z27	X28	Y28	Z28	X29	Y29	Z29	X30	Y30	Z30	X31	Y31	Z31	X32	Y32	Z32	X33	Y33	Z33	X34	Y34	Z34	X35	Y35	Z35	X36	Y36	Z36	X37	Y37	Z37	X38	Y38	Z38	X39	Y39	Z39	X40	Y40	Z40	X41	Y41	Z41	X42	Y42	Z42	X43	Y43	Z43	X44	Y44	Z44	X45	Y45	Z45	X46	Y46	Z46	X47	Y47	Z47	X48	Y48	Z48	X49	Y49	Z49	X50	Y50	Z50	X51	Y51	Z51	

31	0.30000000	-1074.67123	785.15716	-457.05143	-1045.35492	706.94590	-473.16676	-1204.47137	404.64605	-479.80376	-1277.83773	371.55453	-516.55977	-1107.00533	353.05075	-443.21720	-1058.65426	378.89789	-498.79580	-1075.34317	791.50063	-741.95778	-1057.44344	693.38213	-741.59607	-1192.14659	407.89408	-724.13543	-1262.27043	372.08200	-687.76068	-1086.70675	353.10441	-762.90847	-1048.49420	375.23082	-705.68700	-1098.70512	605.55502	-452.88085	-1114.52659	738.82634	-443.84530	-1164.23301	638.80465	-440.93960	-1140.26907	723.99188	-754.38465	-1169.82472	605.21216	-762.87601	-1070.04763	1107.53352	-429.61131	-1053.35999	996.07950	-434.63164	-1159.30121	972.90579	-426.05927	-1181.09363	1088.41896	-420.46764	-1106.18007	962.73347	-411.56576	-1074.18696	1062.05067	-797.48845	-1047.71673	929.86505	-767.76084	-1187.09324	1040.91321	-772.86118	-1153.51373	905.56348	-755.51903	-1064.53807	1252.68394	-472.87961	-1243.15439	1318.92128	-562.86785	-1046.65836	1243.88195	-722.80505	-1241.90265	1324.00959	-665.34536	-1152.34326	1726.73273	-610.22325	-1061.67977	1665.25461	-430.71652	-1067.91089	1685.85736	-783.85458	-1021.80630	1666.59953	-582.91465	-1013.95391	1671.06401	-622.10120	-1061.53992	1523.39161	-376.21583	-1135.16388	1321.33352	-426.12965	-1108.30918	1328.96733	-360.18661	-1034.80211	1208.30394	-363.76858	-997.97480	1077.45189	-373.72447	-1019.25418	1069.92325	-346.02953	-1051.83894	1563.01590	-838.24461	-1122.70975	1334.82559	-781.58505	-1082.15351	1348.98958	-848.98958	-1017.57431	1254.32926	-826.63188	-982.38169	1100.82636	-817.75196	-1000.38263	1096.28839	-845.14842	-1151.91737	1185.44321	-502.28500	-1138.15970	1183.98096	-708.29184	-1139.72959	1181.40034	-512.03585	-1137.71147	1189.60583	-677.29408	
32	0.31000000	-1072.78766	784.31537	-456.90897	-1043.69912	705.99627	-473.18822	-1204.44733	404.57727	-479.89586	-1277.65613	371.69285	-516.58281	-1106.99329	353.08657	-443.22774	-1058.64823	378.88947	-498.87414	-1072.55469	790.62950	-741.78460	-1055.15565	692.29864	-741.41717	-1192.05608	407.93075	-724.15201	-1262.26326	372.03537	-687.70905	-1086.69842	353.14046	-762.87807	-1048.50410	375.22567	-705.66923	-1097.62864	604.88069	-452.97809	-1112.70803	738.24162	-443.78726	-1162.96098	638.47197	-440.69788	-1137.74524	723.47122	-754.33737	-1168.14742	604.85068	-762.86074	-1068.77524	1106.72463	-429.54651	-1051.71803	995.41627	-434.56179	-1157.61502	971.93877	-425.80416	-1179.54048	1087.46940	-420.15949	-1104.33302	961.93786	-411.36499	-1072.39702	1061.16301	-797.66784	-1045.31431	929.02770	-767.82270	-1185.24378	1039.46691	-772.61765	-1151.11272	903.96962	-754.63348	-1063.36909	1251.67370	-472.58119	-1241.95123	1318.08806	-562.77764	-1045.37102	1242.70607	-722.60425	-1240.50328	1323.13207	-665.40069	-1150.00420	1725.68525	-610.30238	-1059.56042	1663.89923	-430.32946	-1065.85601	1684.72395	-783.44790	-1019.76674	1665.18102	-582.76144	-1011.92099	1669.67069	-621.89286	-1059.71283	1521.99708	-376.09096	-1133.68157	1320.03398	-426.05176	-1106.63824	1327.69686	-360.07288	-1033.34960	1206.91617	-363.68521	-996.64540	1076.09921	-373.87420	-1017.94177	1068.67480	-345.62122	-1050.06613	1561.89031	-838.14878	-1121.29983	1333.75002	-781.41421	-1080.81561	1347.90294	-848.93367	-1016.38895	1253.16384	-826.68561	-981.38677	1099.60109	-817.77068	-999.38051	1095.01605	-845.21846	-1150.86369	1184.53527	-502.09395	-1136.93799	1182.93126	-708.08842	-1138.74119	1180.39589	-511.87448	-1136.40841	1188.52199	-677.20654	
33	0.32000000	-1070.77830	783.46284	-456.92691	-1042.01068	705.02986	-473.13207	-1204.52282	404.52905	-480.03259	-1277.50973	371.84545	-516.63768	-1106.96944	353.14266	-443.23886	-1058.63157	378.88367	-498.93728	-1069.73023	789.63313	-741.65614	-1052.77766	691.23275	-741.51545	-1191.95211	407.98139	-724.18130	-1262.24313	372.00170	-687.68056	-1086.70984	353.14533	-762.82718	-1048.49878	375.22058	-705.65724	-1096.36094	604.18406	-453.32370	-1110.81701	737.59509	-443.75717	-1161.49307	637.92836	-440.60667	-1135.19423	722.96877	-754.16512	-1166.49942	604.51507	-762.89601	-1067.37171	1105.85179	-429.64102	-1050.02420	994.75467	-434.28481	-1155.85462	970.95168	-425.56523	-1177.95033	1086.55680	-419.85867	-1102.45241	961.12669	-411.18182	-1070.61296	1060.22108	-797.78516	-1042.93790	928.14673	-767.87301	-1183.38818	1037.97868	-772.29239	-1148.65056	902.59969	-754.36071	-1062.17677	1250.67558	-472.28683	-1240.72365	1317.30152	-562.73670	-1043.97317	1241.47345	-722.36234	-1239.25002	1322.31990	-665.38420	-1147.81000	1724.69935	-609.60935	-1057.32648	1662.56007	-429.99383	-1063.71378	1683.55838	-783.00117	-1017.57827	1663.77586	-582.46912	-1009.77432	1668.35360	-621.55722	-1057.76210	1520.60697	-375.88201	-1131.98050	1318.65955	-426.21363	-1104.91806	1326.31415	-360.06200	-1031.79076	1205.50377	-363.63090	-995.21064	1074.68768	-373.73284	-1016.46221	1067.51666	-344.98314	-1048.24480	1560.70453	-837.95564	-1119.89033	1332.67814	-781.31087	-1079.39693	1346.76364	-848.78013	-1015.13138	1251.93092	-826.72931	-980.32451	1098.33754	-818.26206	-998.41531	1093.71942	-845.31068	-1149.82082	1183.66277	-501.87135	-1135.72683	1181.87974	-707.85283	-1137.58831	1179.38912	-511.58219	-1135.21373	1187.47479	-676.96576	
34	0.33000000	-1068.65969	782.65600	-456.89684	-1040.27656	704.06031	-473.07865	-1204.55032	404.55448	-480.11124	-1277.59908	371.81563	-516.69017	-1106.95971	353.15640	-443.25565	-1058.60843	378.84594	-498.99087	-1066.85615	788.59574	-741.58410	-1050.32396	690.12279	-741.60797	-1191.82765	408.03632	-724.21555	-1262.22102	372.03566	-687.74522	-1086.74377	353.13034	-762.73792	-1048.45778	375.21518	-705.62205	-1095.06344	603.39451	-453.59035	-1108.74656	736.78943	-443.71045	-1159.97488	637.54159	-440.63641	-1132.55937	722.47833	-754.08717	-1164.76859	604.25616	-762.93027	-1065.89760	1105.02920	-429.64403	-1048.25885	994.05778	-434.00962	-1154.03717	969.94461	-425.36144	-1176.43227	1085.50206	-419.70706	-1100.49579	960.29243	-410.93102	-1068.84268	1059.22408	-797.87690	-1040.61582	927.21649	-767.71512	-1181.43058	1036.57538	-772.17116	-1146.14973	901.31154	-754.11367	-1061.00996	1249.65049	-472.06969	-1239.39553	1316.52610	-562.74804	-1042.65155	1240.20029	-722.09194	-1237.97895	1321.50397	-665.22561	-1145.68363	1723.71858	-608.50409	-1054.98669	1661.19863	-429.75319	-1061.42868	1682.40456	-782.68570	-1015.28284	1662.40667	-582.11992	-1007.44607	1667.03618	-621.33357	-1055.70380	1519.26140	-375.60896	-1130.05530	1317.19240	-426.51535	-1103.10966	1324.89335	-360.04352	-1030.11434	1204.05980	-363.53969	-993.71450	1073.22718	-373.71844	-1014.99402	1066.02969	-345.02309	-1046.26427	1559.50706	-837.73701	-1118.45603	1331.61997	-781.26278	-1077.87560	1345.64250	-848.59321	-1013.76577	1250.69561	-826.76731	-979.20247	1097.10807	-818.78121	-997.39088	1092.47076	-845.33218	-1148.78163	1182.77992	-501.63470	-1134.58016	1180.80613	-707.60708	-1136.41952	1178.42181	-511.27771	-1134.13312	1186.45463	-676.64325	
35	0.34000000	-1066.49465	781.85260	-456.76599	-1038.48398	703.08091	-473.09566	-1204.43717	404.57471	-480.09547	-1277.81775	371.67864	-516.75089	-1106.96617	353.14002	-443.25681	-1058.58365	378.76713	-499.04674	-1063.99431	787.60113	-741.44709	-1047.92512	688.93225	-741.40298	-1191.69219	408.09094	-724.25470	-1262.19194	372.11628	-687.86056	-1086.77706	353.11591	-762.64927	-1048.40196	375.20197	-705.56974	-1093.87844	602.59921	-453.53924	-1106.82805	736.33327	-443.39791	-1158.64895	637.41211	-440.62625	-1129.87667	721.94908	-754.22154	-1162.98261	604.00822	-762.96664	-1064.41625	1104.24453	-429.52397	-1046.42555	993.23990	-433.88875	-1152.18167	968.96420	-425.08174	-1174.95219	1084.34249	-419.59916	-1098.54424	959.39348	-410.69431	-1067.09874	1058.15912	-797.94598	-1038.28028	926.22850	-767.48298	-1179.44285	1035.21705	-772.12148	-1143.71737	899.96957	-753.72990	-1059.85217	1248.57446	-471.91544	-1237.92317	1315.75699	-562.76938	-1041.37555	1238.93951	-721.89507	-1236.50901	1320.58283	-665.00836	-1143.20721	1722.65412	-607.97416	-1052.56261	1659.79893	-429.56571	-1058.92075	1681.22855	-782.54444	-1012.90083	1661.05544	-581.84424	-1005.06510	1665.56089	-621.05767	-1053.53564	1517.93546	-375.40848	-1128.13235	1315.79347	-426.39100	-1101.15824	1323.56359	-359.91748	-1028.35576	1202.61051	-363.47231	-992.13800	1071.74612	-373.76664	-1013.56127	1064.21354	-345.68541	-1044.10362	1558.35588	-837.57830	-1116.88501	1330.57997	-781.14927	-1076.23375	1344.56900	-848.48212	-1012.30462	1249.46475	-826.84740	-978.04646	1095.83440	-819.06858	-996.24513	1091.20899	-845.22998	-1147.67066	1181.84842	-501.43412	-1133.40360	1179.71132	-707.40036	-1135.34123	1177.59280	-511.01272	-1133.05340	1185.39780	-676.37126	
